<svg width="300" height="300" xmlns="http://www.w3.org/2000/svg">
  <!-- Background -->
  <rect width="300" height="300" fill="#4CAF50" opacity="0.1"/>
  
  <!-- App Icon -->
  <g transform="translate(110, 50)">
    <rect width="80" height="80" rx="16" fill="#4CAF50"/>
    <circle cx="40" cy="40" r="20" fill="#FFFFFF"/>
    <path d="M40 25 L45 35 L55 40 L45 45 L40 55 L35 45 L25 40 L35 35 Z" fill="#4CAF50"/>
    <circle cx="40" cy="40" r="5" fill="#FFFFFF"/>
  </g>
  
  <!-- Decorative Elements -->
  <circle cx="50" cy="50" r="20" fill="#4CAF50" opacity="0.2"/>
  <circle cx="250" cy="250" r="30" fill="#4CAF50" opacity="0.2"/>
  <circle cx="230" cy="70" r="15" fill="#4CAF50" opacity="0.2"/>
  <circle cx="70" cy="230" r="25" fill="#4CAF50" opacity="0.2"/>
  
  <!-- Travel Elements -->
  <path d="M50 150 L80 180 L110 160 L140 190 L170 170 L200 200 L230 180 L250 210" 
        stroke="#4CAF50" stroke-width="3" fill="none" stroke-linecap="round"/>
  
  <circle cx="80" cy="180" r="5" fill="#4CAF50"/>
  <circle cx="140" cy="190" r="5" fill="#4CAF50"/>
  <circle cx="200" cy="200" r="5" fill="#4CAF50"/>
  
  <!-- Airplane -->
  <path d="M60 100 L90 90 L240 120 L90 150 Z" fill="#FFFFFF" stroke="#4CAF50" stroke-width="2"/>
  <path d="M220 120 L250 110 L240 130 L210 125 Z" fill="#FFFFFF" stroke="#4CAF50" stroke-width="2"/>
</svg> 