<svg width="800" height="600" xmlns="http://www.w3.org/2000/svg">
  <rect width="800" height="600" fill="#f8f9fa"/>
  
  <!-- Header -->
  <rect width="800" height="60" fill="#E91E63"/>
  <text x="20" y="38" font-family="Arial" font-size="24" fill="#FFFFFF">AI Health Nurse</text>
  
  <!-- Sidebar -->
  <rect x="0" y="60" width="200" height="540" fill="#f0f0f0"/>
  <text x="20" y="100" font-family="Arial" font-size="18" fill="#333">Dashboard</text>
  <rect x="20" y="120" width="160" height="40" rx="5" fill="#FFFFFF"/>
  <text x="35" y="145" font-family="Arial" font-size="16" fill="#333">Health Stats</text>
  <rect x="20" y="170" width="160" height="40" rx="5" fill="#E91E63"/>
  <text x="35" y="195" font-family="Arial" font-size="16" fill="#FFFFFF">Diet Plan</text>
  <rect x="20" y="220" width="160" height="40" rx="5" fill="#FFFFFF"/>
  <text x="35" y="245" font-family="Arial" font-size="16" fill="#333">Exercise</text>
  <rect x="20" y="270" width="160" height="40" rx="5" fill="#FFFFFF"/>
  <text x="35" y="295" font-family="Arial" font-size="16" fill="#333">Medications</text>
  
  <!-- Main Content -->
  <text x="220" y="100" font-family="Arial" font-size="22" font-weight="bold" fill="#333">Your Personalized Diet Plan</text>
  
  <!-- Nutrition Overview -->
  <rect x="220" y="120" width="560" height="100" rx="5" fill="#FFFFFF" stroke="#ddd" stroke-width="1"/>
  <text x="240" y="150" font-family="Arial" font-size="18" font-weight="bold" fill="#E91E63">Daily Nutrition Goals</text>
  
  <!-- Calories -->
  <circle cx="300" cy="190" r="25" fill="none" stroke="#E91E63" stroke-width="5" stroke-dasharray="125, 25"/>
  <text x="300" y="195" font-family="Arial" font-size="12" text-anchor="middle" fill="#333">1800 cal</text>
  
  <!-- Protein -->
  <circle cx="400" cy="190" r="25" fill="none" stroke="#4CAF50" stroke-width="5" stroke-dasharray="100, 50"/>
  <text x="400" y="195" font-family="Arial" font-size="12" text-anchor="middle" fill="#333">90g</text>
  
  <!-- Carbs -->
  <circle cx="500" cy="190" r="25" fill="none" stroke="#FF9800" stroke-width="5" stroke-dasharray="75, 75"/>
  <text x="500" y="195" font-family="Arial" font-size="12" text-anchor="middle" fill="#333">200g</text>
  
  <!-- Fat -->
  <circle cx="600" cy="190" r="25" fill="none" stroke="#2196F3" stroke-width="5" stroke-dasharray="50, 100"/>
  <text x="600" y="195" font-family="Arial" font-size="12" text-anchor="middle" fill="#333">60g</text>
  
  <!-- Meal Plan -->
  <rect x="220" y="240" width="560" height="300" rx="5" fill="#FFFFFF" stroke="#ddd" stroke-width="1"/>
  <text x="240" y="270" font-family="Arial" font-size="18" font-weight="bold" fill="#E91E63">Today's Meal Plan</text>
  
  <!-- Breakfast -->
  <rect x="240" y="290" width="520" height="60" rx="5" fill="#F5F5F5"/>
  <text x="260" y="315" font-family="Arial" font-size="16" font-weight="bold" fill="#333">Breakfast</text>
  <text x="260" y="335" font-family="Arial" font-size="14" fill="#666">Greek yogurt with berries and honey, whole grain toast</text>
  <text x="680" y="325" font-family="Arial" font-size="14" text-anchor="end" fill="#E91E63">450 cal</text>
  
  <!-- Lunch -->
  <rect x="240" y="360" width="520" height="60" rx="5" fill="#F5F5F5"/>
  <text x="260" y="385" font-family="Arial" font-size="16" font-weight="bold" fill="#333">Lunch</text>
  <text x="260" y="405" font-family="Arial" font-size="14" fill="#666">Grilled chicken salad with olive oil dressing</text>
  <text x="680" y="395" font-family="Arial" font-size="14" text-anchor="end" fill="#E91E63">550 cal</text>
  
  <!-- Dinner -->
  <rect x="240" y="430" width="520" height="60" rx="5" fill="#F5F5F5"/>
  <text x="260" y="455" font-family="Arial" font-size="16" font-weight="bold" fill="#333">Dinner</text>
  <text x="260" y="475" font-family="Arial" font-size="14" fill="#666">Baked salmon with quinoa and steamed vegetables</text>
  <text x="680" y="465" font-family="Arial" font-size="14" text-anchor="end" fill="#E91E63">600 cal</text>
  
  <!-- Water Reminder -->
  <rect x="240" y="500" width="520" height="30" rx="15" fill="#E3F2FD"/>
  <text x="260" y="520" font-family="Arial" font-size="14" fill="#2196F3">💧 Remember to drink 8 glasses of water today</text>
</svg> 