<svg width="800" height="600" xmlns="http://www.w3.org/2000/svg">
  <!-- Left Panel -->
  <rect width="800" height="600" fill="#f8f9fa"/>
  
  <!-- Header Left -->
  <rect width="400" height="50" fill="#FF5722"/>
  <text x="54" y="33" font-family="Arial" font-size="20" fill="#FFFFFF">Shopping Assistant</text>
  
  <!-- Sidebar Left -->
  <rect x="0" y="50" width="220" height="550" fill="#f0f0f0"/>
  <rect x="0" y="100" width="220" height="50" fill="#f0f0f0"/>
  <text x="54" y="130" font-family="Arial" font-size="16" fill="#333333">Dashboard</text>
  
  <rect x="0" y="150" width="220" height="50" fill="#FFFFFF"/>
  <text x="54" y="180" font-family="Arial" font-size="16" fill="#333333">My Wishlist</text>
  
  <rect x="0" y="200" width="220" height="50" fill="#f0f0f0"/>
  <text x="54" y="230" font-family="Arial" font-size="16" fill="#333333">Price Alerts</text>
  
  <rect x="0" y="250" width="220" height="50" fill="#f0f0f0"/>
  <text x="54" y="280" font-family="Arial" font-size="16" fill="#333333">Recent Searches</text>
  
  <rect x="0" y="300" width="220" height="50" fill="#f0f0f0"/>
  <text x="54" y="330" font-family="Arial" font-size="16" fill="#333333">Settings</text>
  
  <!-- Main Content Left -->
  <rect x="220" y="50" width="580" height="550" fill="#FFFFFF"/>
  <text x="240" y="90" font-family="Arial" font-size="22" font-weight="bold" fill="#333333">Your Shopping Dashboard</text>
  
  <!-- Price Alerts -->
  <rect x="240" y="120" width="250" height="140" rx="5" fill="#FFFFFF" stroke="#ddd" stroke-width="1"/>
  <text x="260" y="150" font-family="Arial" font-size="18" font-weight="bold" fill="#FF5722">Price Alerts</text>
  <text x="260" y="180" font-family="Arial" font-size="16" fill="#333333">Wireless Headphones</text>
  <text x="260" y="210" font-family="Arial" font-size="14" fill="#666666">Price dropped: $149.99 → $99.99</text>
  <text x="260" y="235" font-family="Arial" font-size="14" fill="#FF5722">33% OFF - Best price in 6 months!</text>
  
  <!-- Deal of the Day -->
  <rect x="510" y="120" width="250" height="140" rx="5" fill="#FFFFFF" stroke="#ddd" stroke-width="1"/>
  <text x="530" y="150" font-family="Arial" font-size="18" font-weight="bold" fill="#FF5722">Deal of the Day</text>
  <text x="530" y="180" font-family="Arial" font-size="16" fill="#333333">Smart Watch Pro</text>
  <text x="530" y="210" font-family="Arial" font-size="14" fill="#666666">$299.99 → $199.99</text>
  <text x="530" y="235" font-family="Arial" font-size="14" fill="#FF5722">Limited time offer - 24h remaining</text>
  
  <!-- Recently Viewed -->
  <rect x="240" y="280" width="250" height="140" rx="5" fill="#FFFFFF" stroke="#ddd" stroke-width="1"/>
  <text x="260" y="310" font-family="Arial" font-size="18" font-weight="bold" fill="#FF5722">Recently Viewed</text>
  <text x="260" y="340" font-family="Arial" font-size="16" fill="#333333">1. Laptop Pro 16"</text>
  <text x="260" y="370" font-family="Arial" font-size="16" fill="#333333">2. Wireless Earbuds</text>
  <text x="260" y="400" font-family="Arial" font-size="16" fill="#333333">3. Smart Home Hub</text>
  
  <!-- Recommended for You -->
  <rect x="510" y="280" width="250" height="140" rx="5" fill="#FFFFFF" stroke="#ddd" stroke-width="1"/>
  <text x="530" y="310" font-family="Arial" font-size="18" font-weight="bold" fill="#FF5722">Recommended for You</text>
  <text x="530" y="340" font-family="Arial" font-size="16" fill="#333333">Portable Charger</text>
  <text x="530" y="365" font-family="Arial" font-size="14" fill="#666666">Based on your recent purchases</text>
  <text x="530" y="390" font-family="Arial" font-size="14" fill="#FF5722">4.8★ (2,345 reviews)</text>
  
  <!-- AI Message -->
  <rect x="240" y="440" width="520" height="80" rx="5" fill="#FFFFFF" stroke="#ddd" stroke-width="1"/>
  <circle cx="280" cy="480" r="25" fill="#FF5722"/>
  <text x="275" y="487" font-family="Arial" font-size="16" fill="#FFFFFF">AI</text>
  <text x="320" y="485" font-family="Arial" font-size="14" fill="#333333">I found a better deal on the headphones you're watching! Would you like to see the offer from ElectroMart?</text>
  
  <!-- Right Panel -->
  <rect x="800" y="0" width="800" height="600" fill="#f8f9fa"/>
  
  <!-- Header Right -->
  <rect x="800" y="0" width="400" height="50" fill="#FF5722"/>
  <text x="854" y="33" font-family="Arial" font-size="20" fill="#FFFFFF">Shopping Assistant</text>
  
  <!-- Sidebar Right -->
  <rect x="800" y="50" width="220" height="550" fill="#f0f0f0"/>
  <rect x="800" y="100" width="220" height="50" fill="#f0f0f0"/>
  <text x="854" y="130" font-family="Arial" font-size="16" fill="#333333">Dashboard</text>
  
  <rect x="800" y="150" width="220" height="50" fill="#f0f0f0"/>
  <text x="854" y="180" font-family="Arial" font-size="16" fill="#333333">My Wishlist</text>
  
  <rect x="800" y="200" width="220" height="50" fill="#FFFFFF"/>
  <text x="854" y="230" font-family="Arial" font-size="16" fill="#333333">Price Alerts</text>
  
  <rect x="800" y="250" width="220" height="50" fill="#f0f0f0"/>
  <text x="854" y="280" font-family="Arial" font-size="16" fill="#333333">Recent Searches</text>
  
  <rect x="800" y="300" width="220" height="50" fill="#f0f0f0"/>
  <text x="854" y="330" font-family="Arial" font-size="16" fill="#333333">Settings</text>
  
  <!-- Main Content Right -->
  <rect x="1020" y="50" width="580" height="550" fill="#FFFFFF"/>
  <text x="1040" y="90" font-family="Arial" font-size="22" font-weight="bold" fill="#333333">Your Price Alerts</text>
  
  <!-- Alert 1 -->
  <rect x="1040" y="120" width="520" height="100" rx="5" fill="#FFFFFF" stroke="#ddd" stroke-width="1"/>
  <text x="1060" y="150" font-family="Arial" font-size="18" font-weight="bold" fill="#333333">Wireless Headphones</text>
  <text x="1060" y="175" font-family="Arial" font-size="14" fill="#666666">Current: $99.99 | Target: $100.00</text>
  <text x="1060" y="200" font-family="Arial" font-size="14" fill="#FF5722">Price dropped below your target!</text>
  <rect x="1450" y="150" width="80" height="30" rx="15" fill="#FF5722"/>
  <text x="1470" y="170" font-family="Arial" font-size="14" fill="#FFFFFF">Buy Now</text>
  
  <!-- Alert 2 -->
  <rect x="1040" y="240" width="520" height="100" rx="5" fill="#FFFFFF" stroke="#ddd" stroke-width="1"/>
  <text x="1060" y="270" font-family="Arial" font-size="18" font-weight="bold" fill="#333333">Smart Watch Pro</text>
  <text x="1060" y="295" font-family="Arial" font-size="14" fill="#666666">Current: $199.99 | Target: $200.00</text>
  <text x="1060" y="320" font-family="Arial" font-size="14" fill="#FF5722">Price dropped below your target!</text>
  <rect x="1450" y="270" width="80" height="30" rx="15" fill="#FF5722"/>
  <text x="1470" y="290" font-family="Arial" font-size="14" fill="#FFFFFF">Buy Now</text>
  
  <!-- Alert 3 -->
  <rect x="1040" y="360" width="520" height="100" rx="5" fill="#FFFFFF" stroke="#ddd" stroke-width="1"/>
  <text x="1060" y="390" font-family="Arial" font-size="18" font-weight="bold" fill="#333333">Laptop Pro 16"</text>
  <text x="1060" y="415" font-family="Arial" font-size="14" fill="#666666">Current: $1,299.99 | Target: $1,199.99</text>
  <text x="1060" y="440" font-family="Arial" font-size="14" fill="#666666">Tracking price - 5% away from target</text>
  <rect x="1450" y="390" width="80" height="30" rx="15" fill="#f0f0f0"/>
  <text x="1470" y="410" font-family="Arial" font-size="14" fill="#666666">Waiting</text>
  
  <!-- Price History -->
  <rect x="1040" y="480" width="520" height="100" rx="5" fill="#f8f9fa" stroke="#ddd" stroke-width="1"/>
  <text x="1060" y="510" font-family="Arial" font-size="18" font-weight="bold" fill="#FF5722">Price Tracking Tips</text>
  <text x="1060" y="535" font-family="Arial" font-size="14" fill="#666666">💡 Set realistic price targets based on historical data</text>
  <text x="1060" y="560" font-family="Arial" font-size="14" fill="#666666">💡 Enable notifications to get instant alerts when prices drop</text>
</svg> 