<svg width="800" height="600" xmlns="http://www.w3.org/2000/svg">
  <!-- Left Panel -->
  <rect width="800" height="600" fill="#f8f9fa"/>
  
  <!-- Header Left -->
  <rect width="400" height="50" fill="#4CAF50"/>
  <text x="54" y="33" font-family="Arial" font-size="20" fill="#FFFFFF">Travel AI Assistant</text>
  
  <!-- Sidebar Left -->
  <rect x="0" y="50" width="220" height="550" fill="#f0f0f0"/>
  <rect x="0" y="100" width="220" height="50" fill="#f0f0f0"/>
  <text x="54" y="130" font-family="Arial" font-size="16" fill="#333333">Dashboard</text>
  
  <rect x="0" y="150" width="220" height="50" fill="#FFFFFF"/>
  <text x="54" y="180" font-family="Arial" font-size="16" fill="#333333">Trip Planner</text>
  
  <rect x="0" y="200" width="220" height="50" fill="#f0f0f0"/>
  <text x="54" y="230" font-family="Arial" font-size="16" fill="#333333">Destinations</text>
  
  <rect x="0" y="250" width="220" height="50" fill="#f0f0f0"/>
  <text x="54" y="280" font-family="Arial" font-size="16" fill="#333333">Bookings</text>
  
  <rect x="0" y="300" width="220" height="50" fill="#f0f0f0"/>
  <text x="54" y="330" font-family="Arial" font-size="16" fill="#333333">Expenses</text>
  
  <!-- Main Content Left -->
  <rect x="220" y="50" width="580" height="550" fill="#FFFFFF"/>
  <text x="240" y="90" font-family="Arial" font-size="22" font-weight="bold" fill="#333333">Your Travel Dashboard</text>
  
  <!-- Flight Status -->
  <rect x="240" y="120" width="250" height="140" rx="5" fill="#FFFFFF" stroke="#ddd" stroke-width="1"/>
  <text x="260" y="150" font-family="Arial" font-size="18" font-weight="bold" fill="#4CAF50">Flight Status</text>
  <text x="260" y="180" font-family="Arial" font-size="16" fill="#333333">SFO → CDG</text>
  <text x="260" y="210" font-family="Arial" font-size="14" fill="#666666">Departure: 3:45 PM</text>
  <text x="260" y="235" font-family="Arial" font-size="14" fill="#666666">Status: On Time</text>
  
  <!-- Weather -->
  <rect x="510" y="120" width="250" height="140" rx="5" fill="#FFFFFF" stroke="#ddd" stroke-width="1"/>
  <text x="530" y="150" font-family="Arial" font-size="18" font-weight="bold" fill="#4CAF50">Paris Weather</text>
  <circle cx="560" cy="195" r="25" fill="#FFEB3B"/>
  <text x="530" y="235" font-family="Arial" font-size="14" fill="#666666">72°F / Sunny</text>
  
  <!-- Accommodation -->
  <rect x="240" y="280" width="250" height="140" rx="5" fill="#FFFFFF" stroke="#ddd" stroke-width="1"/>
  <text x="260" y="310" font-family="Arial" font-size="18" font-weight="bold" fill="#4CAF50">Hotel Reservation</text>
  <text x="260" y="340" font-family="Arial" font-size="16" fill="#333333">Grand Hotel Paris</text>
  <text x="260" y="370" font-family="Arial" font-size="14" fill="#666666">Check-in: May 15, 2:00 PM</text>
  <text x="260" y="395" font-family="Arial" font-size="14" fill="#666666">Confirmation: #12345678</text>
  
  <!-- Itinerary Reminder -->
  <rect x="510" y="280" width="250" height="140" rx="5" fill="#FFFFFF" stroke="#ddd" stroke-width="1"/>
  <text x="530" y="310" font-family="Arial" font-size="18" font-weight="bold" fill="#4CAF50">Today's Itinerary</text>
  <text x="530" y="340" font-family="Arial" font-size="14" fill="#666666">9:00 AM - Eiffel Tower</text>
  <text x="530" y="365" font-family="Arial" font-size="14" fill="#666666">1:00 PM - Lunch at Café de Paris</text>
  <text x="530" y="390" font-family="Arial" font-size="14" fill="#666666">3:00 PM - Louvre Museum</text>
  
  <!-- AI Message -->
  <rect x="240" y="440" width="520" height="80" rx="5" fill="#FFFFFF" stroke="#ddd" stroke-width="1"/>
  <circle cx="280" cy="480" r="25" fill="#4CAF50"/>
  <text x="275" y="487" font-family="Arial" font-size="16" fill="#FFFFFF">AI</text>
  <text x="320" y="485" font-family="Arial" font-size="14" fill="#333333">Your hotel is a 10-minute walk from the Eiffel Tower. Would you like me to suggest some restaurants nearby for dinner tonight?</text>
  
  <!-- Right Panel -->
  <rect x="800" y="0" width="800" height="600" fill="#f8f9fa"/>
  
  <!-- Header Right -->
  <rect x="800" y="0" width="400" height="50" fill="#4CAF50"/>
  <text x="854" y="33" font-family="Arial" font-size="20" fill="#FFFFFF">Travel AI Assistant</text>
  
  <!-- Sidebar Right -->
  <rect x="800" y="50" width="220" height="550" fill="#f0f0f0"/>
  <rect x="800" y="100" width="220" height="50" fill="#f0f0f0"/>
  <text x="854" y="130" font-family="Arial" font-size="16" fill="#333333">Dashboard</text>
  
  <rect x="800" y="150" width="220" height="50" fill="#f0f0f0"/>
  <text x="854" y="180" font-family="Arial" font-size="16" fill="#333333">Trip Planner</text>
  
  <rect x="800" y="200" width="220" height="50" fill="#FFFFFF"/>
  <text x="854" y="230" font-family="Arial" font-size="16" fill="#333333">Destinations</text>
  
  <rect x="800" y="250" width="220" height="50" fill="#f0f0f0"/>
  <text x="854" y="280" font-family="Arial" font-size="16" fill="#333333">Bookings</text>
  
  <rect x="800" y="300" width="220" height="50" fill="#f0f0f0"/>
  <text x="854" y="330" font-family="Arial" font-size="16" fill="#333333">Expenses</text>
  
  <!-- Main Content Right -->
  <rect x="1020" y="50" width="580" height="550" fill="#FFFFFF"/>
  <text x="1040" y="90" font-family="Arial" font-size="22" font-weight="bold" fill="#333333">Paris Destination Guide</text>
  
  <!-- Top Attractions -->
  <text x="1040" y="130" font-family="Arial" font-size="18" font-weight="bold" fill="#4CAF50">Top Attractions</text>
  
  <!-- Attraction 1 -->
  <rect x="1040" y="150" width="520" height="80" rx="5" fill="#FFFFFF" stroke="#ddd" stroke-width="1"/>
  <text x="1060" y="180" font-family="Arial" font-size="16" font-weight="bold" fill="#333333">Eiffel Tower</text>
  <text x="1060" y="205" font-family="Arial" font-size="14" fill="#666666">Open 9:00 AM - 11:00 PM</text>
  <text x="1450" y="180" font-family="Arial" font-size="14" fill="#4CAF50">★★★★★</text>
  
  <!-- Attraction 2 -->
  <rect x="1040" y="240" width="520" height="80" rx="5" fill="#FFFFFF" stroke="#ddd" stroke-width="1"/>
  <text x="1060" y="270" font-family="Arial" font-size="16" font-weight="bold" fill="#333333">Louvre Museum</text>
  <text x="1060" y="295" font-family="Arial" font-size="14" fill="#666666">Open 9:00 AM - 6:00 PM (Closed Tuesdays)</text>
  <text x="1450" y="270" font-family="Arial" font-size="14" fill="#4CAF50">★★★★☆</text>
  
  <!-- Attraction 3 -->
  <rect x="1040" y="330" width="520" height="80" rx="5" fill="#FFFFFF" stroke="#ddd" stroke-width="1"/>
  <text x="1060" y="360" font-family="Arial" font-size="16" font-weight="bold" fill="#333333">Notre-Dame Cathedral</text>
  <text x="1060" y="385" font-family="Arial" font-size="14" fill="#666666">Open 8:00 AM - 7:00 PM</text>
  <text x="1450" y="360" font-family="Arial" font-size="14" fill="#4CAF50">★★★★☆</text>
  
  <!-- Local Tips -->
  <rect x="1040" y="430" width="520" height="100" rx="5" fill="#f8f9fa" stroke="#ddd" stroke-width="1"/>
  <text x="1060" y="460" font-family="Arial" font-size="18" font-weight="bold" fill="#4CAF50">Local Tips</text>
  <text x="1060" y="490" font-family="Arial" font-size="14" fill="#666666">💡 Purchase museum passes in advance to skip long lines</text>
  <text x="1060" y="515" font-family="Arial" font-size="14" fill="#666666">💡 Most attractions are less crowded early morning or evening</text>
</svg> 