<svg width="800" height="600" xmlns="http://www.w3.org/2000/svg">
  <!-- Left Panel -->
  <rect width="800" height="600" fill="#f8f9fa"/>
  
  <!-- Header Left -->
  <rect width="400" height="50" fill="#9C27B0"/>
  <text x="54" y="33" font-family="Arial" font-size="20" fill="#FFFFFF">Creative Writer AI</text>
  
  <!-- Sidebar Left -->
  <rect x="0" y="50" width="220" height="550" fill="#f0f0f0"/>
  <rect x="0" y="100" width="220" height="50" fill="#f0f0f0"/>
  <text x="54" y="130" font-family="Arial" font-size="16" fill="#333333">Dashboard</text>
  
  <rect x="0" y="150" width="220" height="50" fill="#FFFFFF"/>
  <text x="54" y="180" font-family="Arial" font-size="16" fill="#333333">My Projects</text>
  
  <rect x="0" y="200" width="220" height="50" fill="#f0f0f0"/>
  <text x="54" y="230" font-family="Arial" font-size="16" fill="#333333">Story Generator</text>
  
  <rect x="0" y="250" width="220" height="50" fill="#f0f0f0"/>
  <text x="54" y="280" font-family="Arial" font-size="16" fill="#333333">Character Creator</text>
  
  <rect x="0" y="300" width="220" height="50" fill="#f0f0f0"/>
  <text x="54" y="330" font-family="Arial" font-size="16" fill="#333333">Writing Assistant</text>
  
  <!-- Main Content Left -->
  <rect x="220" y="50" width="580" height="550" fill="#FFFFFF"/>
  <text x="240" y="90" font-family="Arial" font-size="22" font-weight="bold" fill="#333333">Your Writing Dashboard</text>
  
  <!-- Recent Projects -->
  <rect x="240" y="120" width="250" height="140" rx="5" fill="#FFFFFF" stroke="#ddd" stroke-width="1"/>
  <text x="260" y="150" font-family="Arial" font-size="18" font-weight="bold" fill="#9C27B0">Recent Projects</text>
  <text x="260" y="180" font-family="Arial" font-size="16" fill="#333333">Mystery Novel (Chapter 5)</text>
  <text x="260" y="210" font-family="Arial" font-size="16" fill="#333333">Short Story Collection</text>
  <text x="260" y="240" font-family="Arial" font-size="16" fill="#333333">Poetry Anthology</text>
  
  <!-- Writing Stats -->
  <rect x="510" y="120" width="250" height="140" rx="5" fill="#FFFFFF" stroke="#ddd" stroke-width="1"/>
  <text x="530" y="150" font-family="Arial" font-size="18" font-weight="bold" fill="#9C27B0">Writing Stats</text>
  <text x="530" y="180" font-family="Arial" font-size="16" fill="#333333">Today: 1,250 words</text>
  <text x="530" y="210" font-family="Arial" font-size="16" fill="#333333">This Week: 8,750 words</text>
  <text x="530" y="240" font-family="Arial" font-size="14" fill="#9C27B0">25% increase from last week</text>
  
  <!-- Writing Prompts -->
  <rect x="240" y="280" width="250" height="140" rx="5" fill="#FFFFFF" stroke="#ddd" stroke-width="1"/>
  <text x="260" y="310" font-family="Arial" font-size="18" font-weight="bold" fill="#9C27B0">Daily Prompts</text>
  <text x="260" y="340" font-family="Arial" font-size="14" fill="#666666">"A mysterious door appears in a familiar place..."</text>
  <text x="260" y="370" font-family="Arial" font-size="14" fill="#666666">"Write about a character who can hear others' thoughts..."</text>
  <text x="260" y="400" font-family="Arial" font-size="14" fill="#666666">"A world where dreams become reality..."</text>
  
  <!-- Writing Goals -->
  <rect x="510" y="280" width="250" height="140" rx="5" fill="#FFFFFF" stroke="#ddd" stroke-width="1"/>
  <text x="530" y="310" font-family="Arial" font-size="18" font-weight="bold" fill="#9C27B0">Writing Goals</text>
  <rect x="530" y="330" width="200" height="20" rx="10" fill="#f0f0f0"/>
  <rect x="530" y="330" width="140" height="20" rx="10" fill="#9C27B0"/>
  <text x="530" y="365" font-family="Arial" font-size="14" fill="#666666">Novel Draft: 70% complete</text>
  <text x="530" y="390" font-family="Arial" font-size="14" fill="#666666">Target: Complete by June 15</text>
  
  <!-- AI Message -->
  <rect x="240" y="440" width="520" height="80" rx="5" fill="#FFFFFF" stroke="#ddd" stroke-width="1"/>
  <circle cx="280" cy="480" r="25" fill="#9C27B0"/>
  <text x="275" y="487" font-family="Arial" font-size="16" fill="#FFFFFF">AI</text>
  <text x="320" y="485" font-family="Arial" font-size="14" fill="#333333">I've analyzed your writing style and have some suggestions for your mystery novel's dialogue. Would you like to see them?</text>
  
  <!-- Right Panel -->
  <rect x="800" y="0" width="800" height="600" fill="#f8f9fa"/>
  
  <!-- Header Right -->
  <rect x="800" y="0" width="400" height="50" fill="#9C27B0"/>
  <text x="854" y="33" font-family="Arial" font-size="20" fill="#FFFFFF">Creative Writer AI</text>
  
  <!-- Sidebar Right -->
  <rect x="800" y="50" width="220" height="550" fill="#f0f0f0"/>
  <rect x="800" y="100" width="220" height="50" fill="#f0f0f0"/>
  <text x="854" y="130" font-family="Arial" font-size="16" fill="#333333">Dashboard</text>
  
  <rect x="800" y="150" width="220" height="50" fill="#FFFFFF"/>
  <text x="854" y="180" font-family="Arial" font-size="16" fill="#333333">My Projects</text>
  
  <rect x="800" y="200" width="220" height="50" fill="#f0f0f0"/>
  <text x="854" y="230" font-family="Arial" font-size="16" fill="#333333">Story Generator</text>
  
  <rect x="800" y="250" width="220" height="50" fill="#f0f0f0"/>
  <text x="854" y="280" font-family="Arial" font-size="16" fill="#333333">Character Creator</text>
  
  <rect x="800" y="300" width="220" height="50" fill="#f0f0f0"/>
  <text x="854" y="330" font-family="Arial" font-size="16" fill="#333333">Writing Assistant</text>
  
  <!-- Main Content Right -->
  <rect x="1020" y="50" width="580" height="550" fill="#FFFFFF"/>
  <text x="1040" y="90" font-family="Arial" font-size="22" font-weight="bold" fill="#333333">Mystery Novel - Chapter 5</text>
  
  <!-- Text Editor -->
  <rect x="1040" y="120" width="520" height="300" rx="5" fill="#FFFFFF" stroke="#ddd" stroke-width="1"/>
  <text x="1060" y="150" font-family="Arial" font-size="14" fill="#666666">Detective Morgan stepped into the abandoned warehouse, the floorboards creaking beneath her feet. The air was thick with dust and secrets. She knew the killer had been here—the evidence was clear as day to her trained eye.</text>
  <text x="1060" y="190" font-family="Arial" font-size="14" fill="#666666">"We've been looking in all the wrong places," she whispered to herself, scanning the room with her flashlight.</text>
  <text x="1060" y="230" font-family="Arial" font-size="14" fill="#666666">A sudden noise from the back room made her freeze. She wasn't alone. Slowly, she reached for her weapon, her heart pounding in her chest. Was it the killer, returning to the scene? Or something else entirely?</text>
  <text x="1060" y="270" font-family="Arial" font-size="14" fill="#666666">The door creaked open, revealing...</text>
  <text x="1060" y="310" font-family="Arial" font-size="14" fill="#666666">|</text>
  
  <!-- AI Suggestions -->
  <rect x="1040" y="440" width="520" height="140" rx="5" fill="#f8f9fa" stroke="#ddd" stroke-width="1"/>
  <text x="1060" y="470" font-family="Arial" font-size="18" font-weight="bold" fill="#9C27B0">AI Writing Suggestions</text>
  <text x="1060" y="500" font-family="Arial" font-size="14" fill="#666666">💡 Consider adding more sensory details to enhance the atmosphere</text>
  <text x="1060" y="530" font-family="Arial" font-size="14" fill="#666666">💡 The dialogue could be strengthened with more character-specific speech patterns</text>
  <text x="1060" y="560" font-family="Arial" font-size="14" fill="#666666">💡 Try building more tension before the noise revelation</text>
</svg> 